{"title":"You.Will.Meet.A.Tall.Dark.Stranger.2010.DVDRip.AC3.X264-BARC0DE.","uid":6056260,"size":1541281270,"categoryP":"video","categoryS":"movies","magnet":"?xt=urn:btih:6180eb99adc554041e719daa634d6280851e8e4a&amp;dn=You.Will.Meet.A.Tall.Dark.Stranger.2010.DVDRip.AC3.X264-BARC0DE.&amp;tr=udp%3A%2F%2Ftracker.openbittorrent.com%3A80&amp;tr=udp%3A%2F%2Fopen.demonii.com%3A1337&amp;tr=udp%3A%2F%2Ftracker.coppersurfer.tk%3A6969&amp;tr=udp%3A%2F%2Fexodus.desync.com%3A6969","seeders":0,"leechers":1,"uploader":"noriegaRJ","files":-1,"time":1292928085,"description":"Title: You Will Meet a Tall Dark Stranger\nYear: 2010 \nCountry: U.S.A. / Spain\nLanguage: English\nSource: DVDRIP\nSize: 1,43 GB \nGenre: Comedy / Romance\nRuntime: 98 min\nDirected by: Woody Allen\nStarring: \nGemma Jones  ...  Helena\nPauline Collins  ...  Cristal\nAnthony Hopkins  ...  Alfie\nRupert Frazer  ...  Jogging Partner\nKelly Harrison  ...  Personal Trainer\nNaomi Watts  ...  Sally\nJosh Brolin  ...  Roy\nFreida Pinto  ...  Dia\nEleanor Gecks  ...  Rollerblading Friend\nAntonio Banderas  ...  Greg\nEwen Bremner  ...  Henry Strangler\nChristian McKay  ...  Poker Friend\nPhilip Glenister  ...  Poker Friend\nJonathan Ryland  ...  Poker Friend\nPearce Quigley  ...  Poker Friend\n\nMEDiA iNFO\n\nGeneral\nComplete name: You.Will.Meet.A.Tall.Dark.Stranger.2010.DVDRip.AC3.X264-BARC0DE.mkv\nFormat: Matroska\nOverall bit rate: 2 183 Kbps\n\nVideo\nID: 1\nFormat: AVC\nFormat/Info: Advanced Video Codec\nFormat profile: &lt;a class=&quot;__cf_email__&quot; href=&quot;/cdn-cgi/l/email-protection&quot; data-cfemail=&quot;9ed6f7f9f6ded2adb0ae&quot;&gt;[email&amp;#160;protected]&lt;/a&gt;&lt;script cf-hash='f9e31' type=&quot;text/javascript&quot;&gt;\n/* &lt;![CDATA[ */!function(){try{var t=&quot;currentScript&quot;in document?document.currentScript:function(){for(var t=document.getElementsByTagName(&quot;script&quot;),e=t.length;e--;)if(t[e].getAttribute(&quot;cf-hash&quot;))return t[e]}();if(t&amp;&amp;t.previousSibling){var e,r,n,i,c=t.previousSibling,a=c.getAttribute(&quot;data-cfemail&quot;);if(a){for(e=&quot;&quot;,r=parseInt(a.substr(0,2),16),n=2;a.length-n;n+=2)i=parseInt(a.substr(n,2),16)^r,e+=String.fromCharCode(i);e=document.createTextNode(e),c.parentNode.replaceChild(e,c)}}}catch(u){}}();/* ]]&gt; */&lt;/script&gt;\nFormat settings, CABAC: Yes\nFormat settings, ReFrames: 3 frames\nMuxing mode: Container profile=&lt;a class=&quot;__cf_email__&quot; href=&quot;/cdn-cgi/l/email-protection&quot; data-cfemail=&quot;085d666366677f66483b2638&quot;&gt;[email&amp;#160;protected]&lt;/a&gt;&lt;script cf-hash='f9e31' type=&quot;text/javascript&quot;&gt;\n/* &lt;![CDATA[ */!function(){try{var t=&quot;currentScript&quot;in document?document.currentScript:function(){for(var t=document.getElementsByTagName(&quot;script&quot;),e=t.length;e--;)if(t[e].getAttribute(&quot;cf-hash&quot;))return t[e]}();if(t&amp;&amp;t.previousSibling){var e,r,n,i,c=t.previousSibling,a=c.getAttribute(&quot;data-cfemail&quot;);if(a){for(e=&quot;&quot;,r=parseInt(a.substr(0,2),16),n=2;a.length-n;n+=2)i=parseInt(a.substr(n,2),16)^r,e+=String.fromCharCode(i);e=document.createTextNode(e),c.parentNode.replaceChild(e,c)}}}catch(u){}}();/* ]]&gt; */&lt;/script&gt;\nCodec ID: V_MPEG4/ISO/AVC\nDuration: 1h 34mn\nBit rate: 1 771 Kbps\nWidth: 720 pixels\nHeight: 400 pixels\nDisplay aspect ratio: 16:9\nFrame rate: 25.000 fps\nColor space: YUV\nChroma subsampling: 4:2:0\nBit depth: 8 bits\nScan type: Progressive\nBits/(Pixel*Frame): 0.246\nStream size: 1.11 GiB (77%)\nWriting library: x264 core 79\n\nAudio\nID: 2\nFormat: AC-3\nFormat/Info: Audio Coding 3\nMode extension: CM (complete main)\nCodec ID: A_AC3\nDuration: 1h 34mn\nBit rate mode: Constant\nBit rate: 448 Kbps\nChannel(s): 6 channels\nChannel positions: Front: L C R, Side: L R, LFE\nSampling rate: 48.0 KHz\nStream size: 302 MiB (21%)\nLanguage: English\n\n\nIMDB Link:               &lt;a href=&quot;\nhttp://www.imdb.com/title/tt1182350/&quot; rel=&quot;nofollow&quot; target=&quot;_NEW&quot;&gt;\nhttp://www.imdb.com/title/tt1182350/&lt;/a&gt;\n\nPlot: Follows a pair of married couples, Alfie (Hopkins) and Helena (Jones), and their daughter Sally (Watts) and husband Roy (Brolin), as their passions, ambitions, and anxieties lead them into trouble and out of their minds. After Alfie leaves Helena to pursue his lost youth and a free-spirited call girl named Charmaine (Punch), Helena abandons rationality and surrenders her life to the loopy advice of a charlatan fortune teller. Unhappy in her marriage, Sally develops a crush on her handsome art gallery owner boss, Greg (Banderas), while Roy, a novelist nervously awaiting the response to his latest manuscript, becomes moonstruck over Dia (Pinto), a mystery woman who catches his gaze through a nearby window. (IMDB)\n\nA Woody Allen movie.\n\n\nTHIS TORRENT HAS SUBTITLE IN SPANISH.\n\n\nThanks to those helping me seed. Leechers remember, the community depends on you. If nobody shares, the freebies go away. Remember, the only reason you can download this free movie is because others are generous enough to keep sharing it with you. If nobody shares, everybody loses, so even if its for an extra hour or two after you get it, remember, others want to see it too, and they can't without you.\n\n\nSEE MY OTHERS UPLOADS:                                       &lt;a href=&quot;\nhttp://thepiratebay.se/user/noriegaRJ&quot; rel=&quot;nofollow&quot; target=&quot;_NEW&quot;&gt;\nhttp://thepiratebay.se/user/noriegaRJ&lt;/a&gt;\t\t\t","torrent":{"xt":"urn:btih:6180eb99adc554041e719daa634d6280851e8e4a","amp;dn":"You.Will.Meet.A.Tall.Dark.Stranger.2010.DVDRip.AC3.X264-BARC0DE.","amp;tr":["udp%3A%2F%2Ftracker.openbittorrent.com%3A80","udp%3A%2F%2Fopen.demonii.com%3A1337","udp%3A%2F%2Ftracker.coppersurfer.tk%3A6969","udp%3A%2F%2Fexodus.desync.com%3A6969"],"infoHash":"6180eb99adc554041e719daa634d6280851e8e4a","infoHashBuffer":{"type":"Buffer","data":[97,128,235,153,173,197,84,4,30,113,157,170,99,77,98,128,133,30,142,74]},"announce":[],"urlList":[]}}